<?xml version="1.0" standalone="no"?>
<!DOCTYPE svg PUBLIC "-//W3C//DTD SVG 20010904//EN"
 "http://www.w3.org/TR/2001/REC-SVG-20010904/DTD/svg10.dtd">
<svg version="1.0" xmlns="http://www.w3.org/2000/svg"
 width="1024.000000pt" height="1024.000000pt" viewBox="0 0 1024.000000 1024.000000"
 preserveAspectRatio="xMidYMid meet">
<metadata>
Created by potrace 1.11, written by Peter Selinger 2001-2013
</metadata>
<g transform="translate(0.000000,1024.000000) scale(0.100000,-0.100000)"
fill="#000000" stroke="none">
<path d="M4830 8769 c-543 -62 -1079 -330 -1465 -730 -348 -361 -566 -790
-657 -1296 -20 -113 -23 -160 -23 -398 0 -300 9 -383 70 -620 37 -145 71 -242
137 -390 35 -77 2017 -3678 2098 -3810 27 -44 70 -65 130 -65 60 0 103 21 130
65 56 93 2059 3723 2088 3785 90 194 161 429 199 655 14 88 18 164 18 380 0
302 -13 404 -80 651 -261 949 -1099 1664 -2080 1774 -106 12 -458 11 -565 -1z
m525 -1234 c494 -105 856 -470 961 -967 24 -112 24 -332 1 -451 -51 -258 -170
-473 -363 -657 -140 -134 -275 -215 -458 -275 -138 -45 -229 -59 -376 -59
-147 0 -238 14 -376 59 -183 60 -318 141 -458 275 -193 184 -312 399 -363 657
-23 119 -23 339 1 451 114 538 528 918 1076 986 64 8 284 -4 355 -19z"/>
</g>
</svg>
